<svg width="167" height="206" viewBox="0 0 167 206" fill="none" xmlns="http://www.w3.org/2000/svg">
<path d="M101.021 95.1892C98.1497 89.3314 90.6953 73.5791 98.4279 68.6082C107.352 62.871 105.705 75.0072 104.119 80.9982C103.473 83.4368 98.154 99.6584 96.4829 98.3587C91.3911 94.3984 84.2901 90.7283 77.7538 90.0747C75.2858 89.8279 69.2034 88.6379 69.9019 92.5959C70.6792 97.0003 89.2259 96.4858 92.6651 96.4858C97.5484 96.4858 98.6227 92.8224 95.8346 100.664C93.0215 108.576 90.8818 119.189 90.6481 127.605C90.3561 138.116 96.0062 118.02 96.4829 116.007C97.3424 112.379 96.6718 98.5329 100.373 97.7104C102.553 97.2259 104.867 93.335 106.784 92.0196C109.824 89.9331 113.431 86.7691 117.229 86.1848C118.485 85.9915 123.511 85.9102 120.903 88.4179C117.852 91.3512 110.852 92.2661 106.856 92.5239C103.415 92.7459 95.9976 90.6263 97.4194 94.1807C99.3742 99.0676 104.917 102.831 108.513 106.571C109.032 107.111 111.034 111.179 111.322 109.164C111.697 106.539 111.988 102.488 110.098 100.376C108.566 98.6642 105.124 95.9438 103.614 95.1892" stroke="#96A7A1" stroke-linecap="round" stroke-linejoin="round"/>
<path d="M94.538 93.8926C90.4566 77.8071 81.5716 64.4052 81.5716 47.5018C81.5716 43.9679 85.8048 32.2208 89.0633 41.0187C92.2169 49.5334 91.0448 56.2902 102.03 56.2902C105.719 56.2902 109.585 56.2267 112.403 53.4087C114.516 51.2951 115.007 47.6402 117.877 46.2052C123.887 43.2005 116.384 68.8155 114.996 71.1294C111.185 77.4809 108.8 89.2257 103.326 93.6044C100.494 95.87 95.1785 91.209 93.2413 89.7145C78.5215 78.3593 59.6288 70.5052 41.664 65.6547C26.3225 61.5125 15.2961 64.9404 7.95152 79.6296C1.65442 92.2238 12.6964 95.8784 22.9349 99.7995C31.6314 103.13 37.3872 103.312 35.9012 113.342C35.6091 115.314 33.1118 124.711 35.469 126.02C38.3095 127.598 45.9058 126.49 48.8676 126.02C63.5491 123.69 76.1602 111.969 88.3429 104.554C91.4802 102.644 94.6625 101.818 97.4194 99.3673C100.683 96.4665 93.1298 106.974 90.9362 110.749C81.7008 126.642 75.4154 151.507 75.0884 169.818C75.0658 171.085 74.2169 177.119 75.6647 177.886C80.5522 180.473 82.6572 173.298 83.5886 170.25C85.014 165.585 90.7681 127.362 96.4109 128.974C99.1564 129.758 98.3535 142.788 105.559 144.389C111.384 145.684 103.499 108.178 102.39 105.058C100.894 100.851 95.5262 88.7088 98.0677 92.3798C103.88 100.775 107.35 110.195 110.746 119.753C116.881 137.024 126.247 155.906 145.683 160.597C160.611 164.201 157.811 150.329 151.59 141.22C148.466 136.645 131.02 109.361 143.81 105.706C152.787 103.142 155.39 113.592 163.188 114.567C167.411 115.095 165.468 111.664 163.404 109.884C153.19 101.08 139.215 95.2845 126.306 92.0917C112.808 88.7536 99.6152 88.706 85.8217 88.706C81.7149 88.706 74.8037 88.0718 83.0123 89.3544C103.581 92.5683 130.479 95.4124 149.501 86.1128C156.223 82.8265 161.605 78.676 163.836 71.3455C164.729 68.4118 165.512 65.3666 161.675 65.3666C150.363 65.3666 145.925 65.7011 137.975 73.6507C130.989 80.6368 145.59 55.1897 151.518 47.2857C154.869 42.818 146.772 44.6641 144.458 45.4849C136.088 48.4549 129.351 56.9476 123.712 63.4217C113.732 74.8803 103.917 85.8103 93.2413 96.4859" stroke="#96A7A1" stroke-linecap="round" stroke-linejoin="round"/>
<path d="M85.4615 78.3329C80.6913 56.4905 74.0101 35.4882 73.7918 12.7808C73.7216 5.47958 76.8685 0.53479 84.1649 0.53479C91.128 0.53479 97.2667 37.8093 106.208 25.6751C108.855 22.0823 111.055 17.0065 114.636 14.2215C120.069 9.99556 117.889 30.5689 117.877 32.2303C117.74 51.7909 110.577 66.7069 104.407 84.7441C102.615 89.982 98.0958 96.6466 104.911 97.7825" stroke="#96A7A1" stroke-linecap="round" stroke-linejoin="round"/>
<path d="M85.4615 91.2993C105.944 77.1011 127.43 64.1698 145.107 46.4934C146.955 44.645 157.779 36.9941 152.742 45.2688C150.6 48.7886 139.95 55.2305 147.124 56.9385C151.401 57.9568 159.6 56.7223 162.972 60.4682C165.373 63.1369 161.337 71.1222 160.955 73.7227C160.066 79.7638 157.702 88.3782 159.442 94.4689C161.143 100.423 152.052 97.7825 146.692 97.7825C132.148 97.7825 117.671 96.7633 103.398 93.8206C93.9818 91.879 84.5842 87.7198 75.0884 86.4009C70.0168 85.6965 77.3765 95.0436 77.9698 95.7655C83.2276 102.162 88.2534 108.891 93.2413 115.503C100.639 125.31 106.502 139.904 117.805 146.262C121.177 148.159 124.361 149.925 124.361 144.894C124.361 140.355 124.361 135.817 124.361 131.279C124.361 127.483 122.636 118.692 124.649 115.215C128.365 108.796 149.272 134.785 151.59 136.682C152.376 137.325 163.397 146.21 164.268 143.597C166.944 135.57 149.302 123.767 144.747 120.402C134.545 112.866 123.639 104.226 112.187 98.6469C108.857 97.025 102.769 96.9054 100.013 94.9011C97.4424 93.0318 99.4304 90.1795 97.6355 87.9857C86.7006 74.6208 72.063 62.8312 55.5669 57.0825C43.1466 52.7543 22.8532 48.9156 9.96851 53.985C3.65595 56.4687 1.1802 57.312 1.1802 64.3581C1.1802 66.5552 0.332543 70.9597 1.75648 72.8583C6.71558 79.4704 25.1315 79.5853 32.2274 80.7822C38.4129 81.8255 63.4187 84.7054 63.4187 93.2443C63.4187 98.2789 51.5544 103.466 49.4439 109.164C47.246 115.098 66.6131 111.089 68.8934 110.461C83.0158 106.57 94.9075 97.0347 108.585 92.0197C112.868 90.4493 112.378 90.316 109.161 93.5324C101.645 101.048 94.1298 108.564 86.6141 116.079C65.821 136.873 34.4376 160.196 27.6892 190.564C26.8095 194.523 25.3053 202.31 29.7062 204.395C42.6204 210.512 60.72 173.794 65.4357 166.72C67.1052 164.216 76.5852 147.201 77.6817 155.699C78.355 160.917 79.2197 172.708 86.47 172.987C94.8154 173.308 96.5277 136.12 98.5719 129.622C102.513 117.096 106.887 104.204 112.691 92.596" stroke="#96A7A1" stroke-linecap="round" stroke-linejoin="round"/>
</svg>
