<svg width="40" height="50" viewBox="0 0 253 341" fill="none" xmlns="http://www.w3.org/2000/svg">
<g filter="url(#filter0_d)">
<path d="M155.551 279.863C148.397 240.115 142.957 176.278 183.422 150.264C207.917 134.517 224.488 108.243 243.034 86.4714C251.365 76.6922 248.438 79.1045 244.738 89.4134C239.848 103.034 235.84 117.603 232.505 131.684C228.917 146.837 226.355 163.98 225.383 179.529C224.661 191.082 227.721 201.786 219.035 210.806C213.097 216.972 205.864 220.853 200.144 226.909C188.009 239.758 177.241 256.355 161.125 265.309C157.042 267.577 149.874 279.693 151.216 275.218C153.915 266.22 165.896 255.142 172.274 247.967C185.565 233.015 188.793 205.766 196.738 187.89C202.971 173.865 188.783 190.318 186.209 193.464C174.098 208.266 161.492 225.112 152.764 242.083C141.433 264.117 133.255 282.565 133.255 307.734C133.255 318.405 136.042 348.613 136.042 321.205C136.042 287.541 131.477 253.326 120.403 221.335C108.461 186.834 90.2342 170.65 55.2167 160.019C48.1961 157.888 3.3079 152.707 5.04934 168.38C6.53262 181.73 38.4533 185.253 47.4748 187.89C62.3204 192.229 79.3089 198.841 90.8293 209.567C100.013 218.118 111.854 223.944 120.868 232.483C127.221 238.502 125.893 240.765 128.3 248.586C131.985 260.562 120.366 248.644 115.139 245.025C104.148 237.416 90.5709 234.245 77.3584 232.483C52.7515 229.202 41.078 228.041 26.1072 208.793C19.734 200.599 19.2296 176.581 21.9266 167.142C23.1912 162.716 54.4865 204.515 56.3005 207.09C70.5126 227.262 84.6126 245.274 101.203 263.141C107.216 269.616 114.102 274.834 118.7 282.65C121.234 286.958 127.502 295.265 127.681 287.605C128.164 266.824 133.255 246.775 133.255 225.67C133.255 204.778 125.199 190.838 121.487 171.167C114.17 132.388 116.532 92.8677 116.532 53.4911C116.532 34.5827 127.858 14.0537 141.616 1.15604C143.5 -0.609929 139.256 13.1299 138.674 16.3301C137.41 23.2807 136.042 28.9997 136.042 36.459C136.042 64.7301 135.594 93.8106 126.132 120.845C115.491 151.25 117.851 183.373 124.739 214.367C125.864 219.432 132.403 185.692 133.874 180.148C138.536 162.574 143.214 145.768 150.596 129.361C158.408 112.002 161.125 88.9727 161.125 70.2135C161.125 42.6751 154.918 18.9553 130.468 6.73018" stroke="black" stroke-linecap="round" stroke-linejoin="round"/>
</g>
<defs>
<filter id="filter0_d" x="0.5" y="0.5" width="252.409" height="340.4" filterUnits="userSpaceOnUse" color-interpolation-filters="sRGB">
<feFlood flood-opacity="0" result="BackgroundImageFix"/>
<feColorMatrix in="SourceAlpha" type="matrix" values="0 0 0 0 0 0 0 0 0 0 0 0 0 0 0 0 0 0 127 0"/>
<feOffset dy="4"/>
<feGaussianBlur stdDeviation="2"/>
<feColorMatrix type="matrix" values="0 0 0 0 0 0 0 0 0 0 0 0 0 0 0 0 0 0 0.25 0"/>
<feBlend mode="normal" in2="BackgroundImageFix" result="effect1_dropShadow"/>
<feBlend mode="normal" in="SourceGraphic" in2="effect1_dropShadow" result="shape"/>
</filter>
</defs>
</svg>
